<?xml version="1.0" encoding="utf-8"?>
<!-- Generator: Adobe Illustrator 25.2.3, SVG Export Plug-In . SVG Version: 6.00 Build 0)  -->
<svg version="1.1" id="Layer_1" xmlns="http://www.w3.org/2000/svg" xmlns:xlink="http://www.w3.org/1999/xlink" x="0px" y="0px"
	 viewBox="0 0 16 16" style="enable-background:new 0 0 16 16;" xml:space="preserve">
<style type="text/css">
	.st0{fill-rule:evenodd;clip-rule:evenodd;}
</style>
<g>
	<circle class="st0" cx="8" cy="6.5" r="2.5"/>
	<path class="st0" d="M13.8,6.5c0-3.2-2.6-5.8-5.8-5.8c-3.2,0-5.8,2.6-5.8,5.8c0,2.9,2.2,5.3,5,5.7V13H5v1.5h6V13H8.8v-0.8
		C11.6,11.8,13.8,9.4,13.8,6.5z M8,10.8c-2.3,0-4.2-1.9-4.2-4.2c0-2.3,1.9-4.2,4.2-4.2s4.2,1.9,4.2,4.2C12.2,8.8,10.3,10.8,8,10.8z"
		/>
</g>
</svg>
