<?xml version="1.0" standalone="no"?><!DOCTYPE svg PUBLIC "-//W3C//DTD SVG 1.1//EN" "http://www.w3.org/Graphics/SVG/1.1/DTD/svg11.dtd"><svg t="1686894976159" class="icon" viewBox="0 0 1024 1024" version="1.1" xmlns="http://www.w3.org/2000/svg" p-id="3160" xmlns:xlink="http://www.w3.org/1999/xlink" width="32" height="32"><path d="M275.623431 316.500421c11.107989 11.107989 29.324886 11.107989 40.87699 0 11.107989-11.107989 11.107989-29.769001 0-40.87699l-77.754898-77.755921c-11.107989-11.107989-29.324886-11.107989-40.87699 0-11.107989 11.107989-11.107989 29.769001 0 40.876989l77.754898 77.755922z m472.307999 390.55402c-11.107989-11.107989-29.324886-11.107989-40.876989 0-11.107989 11.107989-11.107989 29.769001 0 40.876989l78.200036 78.200037c11.107989 11.107989 29.324886 11.107989 40.87699 0 11.107989-11.107989 11.107989-29.769001 0-40.87699l-78.200037-78.200036z m-471.863884 0.444115l-78.200036 78.200036c-11.107989 11.107989-11.107989 29.324886 0 40.87699 11.107989 11.107989 29.769001 11.107989 40.876989 0l78.200037-78.200037c11.107989-11.107989 11.107989-29.324886 0-40.876989-11.552104-11.106965-29.769001-11.552104-40.87699 0z m472.309023-390.55402l78.200036-78.200037c11.107989-11.107989 11.107989-29.324886 0-40.876989-11.107989-11.107989-29.769001-11.107989-40.876989 0l-78.200037 78.200036c-11.107989 11.107989-11.107989 29.324886 0 40.87699 11.107989 11.107989 29.324886 11.107989 40.87699 0zM235.634672 512c0-15.995299-12.885472-28.880771-28.880771-28.880771h-110.189612c-15.995299 0-28.880771 12.885472-28.88077 28.880771 0 15.995299 12.885472 28.880771 28.88077 28.880771h110.190635c15.995299 0 28.879748-12.885472 28.879748-28.880771z m691.801039-28.880771H817.245076c-15.995299 0-28.880771 12.885472-28.880771 28.880771 0 15.995299 12.885472 28.880771 28.880771 28.880771h110.190635c15.995299 0 28.880771-12.885472 28.88077-28.880771 0-15.995299-12.885472-28.880771-28.88077-28.880771z m-414.991596 305.245076c-15.995299 0-28.880771 12.885472-28.880771 28.880771V927.435711c0 15.995299 12.885472 28.880771 28.880771 28.88077 15.995299 0 28.880771-12.885472 28.880771-28.88077V817.245076c0-15.995299-12.885472-28.880771-28.880771-28.880771z m0-552.729633c15.995299 0 28.880771-12.885472 28.880771-28.880771V96.563266c0-15.995299-12.885472-28.880771-28.880771-28.880771-15.995299 0-28.880771 12.885472-28.880771 28.880771v110.190635c0 15.996322 12.885472 28.880771 28.880771 28.880771z m0.444115 39.10053c-131.073244 0-237.708913 106.635669-237.708914 237.264798s106.635669 237.264798 237.708914 237.264798S750.598166 642.629129 750.598166 512 643.961474 274.735202 512.88823 274.735202z" p-id="3161"></path></svg>