<?xml version="1.0" standalone="no"?><!DOCTYPE svg PUBLIC "-//W3C//DTD SVG 1.1//EN" "http://www.w3.org/Graphics/SVG/1.1/DTD/svg11.dtd"><svg t="1700212993320" class="icon" viewBox="0 0 1024 1024" version="1.1" xmlns="http://www.w3.org/2000/svg" p-id="2293" xmlns:xlink="http://www.w3.org/1999/xlink" width="48" height="48"><path d="M832 59.733333a110.933333 110.933333 0 1 1-107.946667 136.533334H576c-68.437333 0-99.925333 28.842667-102.272 94.378666L473.6 298.666667v187.733333h250.453333a111.018667 111.018667 0 0 1 100.949334-85.12L832 401.066667a110.933333 110.933333 0 1 1-107.946667 136.533333H473.6V725.333333c0 68.437333 28.842667 99.925333 94.378667 102.272l8.021333 0.128h148.053333a110.976 110.976 0 1 1 0 51.2H576c-96.256 0-150.058667-50.688-153.429333-144.128L422.4 725.333333v-187.733333H257.28a111.018667 111.018667 0 0 1-100.949333 85.12L149.333333 622.933333a110.933333 110.933333 0 1 1 107.946667-136.533333H422.4V298.666667c0-96.256 50.688-150.058667 144.128-153.429334L576 145.066667h148.053333c11.52-48.938667 55.466667-85.333333 107.946667-85.333334z m0 733.866667a59.733333 59.733333 0 1 0 0 119.466667 59.733333 59.733333 0 0 0 0-119.466667z m0-341.333333a59.733333 59.733333 0 1 0 0 119.466666 59.733333 59.733333 0 0 0 0-119.466666z m-682.666667 0a59.733333 59.733333 0 1 0 0 119.466666 59.733333 59.733333 0 0 0 0-119.466666z m682.666667-341.333334a59.733333 59.733333 0 1 0 0 119.466667 59.733333 59.733333 0 0 0 0-119.466667z" p-id="2294"></path></svg>