<?xml version="1.0" standalone="no"?><!DOCTYPE svg PUBLIC "-//W3C//DTD SVG 1.1//EN" "http://www.w3.org/Graphics/SVG/1.1/DTD/svg11.dtd"><svg t="1705902256791" class="icon" viewBox="0 0 1024 1024" version="1.1" xmlns="http://www.w3.org/2000/svg" p-id="2421" xmlns:xlink="http://www.w3.org/1999/xlink" width="48" height="48"><path d="M419.8 379.42l-1.15 1.98c1.49-0.52 2.94-1.18 4.36-1.98h-3.21zM484 450.51h14.75l-18.03-31.23-11.34 19.64A21.43 21.43 0 0 1 484 450.51zM467.09 442.9l-4.39 7.61h16.34c-2.64-4.05-6.95-6.92-11.95-7.61z" fill="#000000" p-id="2422"></path><path d="M392.38 722.99c-3.33 3.26-4.89 8-4.11 12.54l20.61 119.85c0.5 2.76 0.14 5.38-0.78 7.65-2.97 7.37-11.9 11.47-19.83 7.3l-97.33-51.21-10.27-5.38c-4.11-2.12-9.07-2.12-13.17 0l-93.71 49.3-13.88 7.3c-10.41 5.45-22.6-3.33-20.61-14.94l20.61-119.85c0.78-4.53-0.78-9.28-4.11-12.54l-87.05-84.86C60.32 630 65 615.7 76.61 614l120.28-17.5c4.68-0.64 8.64-3.54 10.7-7.72l53.83-109.01c5.17-10.55 20.19-10.55 25.36 0l4.18 8.36 49.65 100.65c2.05 4.18 6.02 7.08 10.7 7.72L471.59 614c11.62 1.7 16.29 16.01 7.86 24.15l-87.07 84.84z" fill="#000000" p-id="2423"></path><path d="M392.38 722.99c-3.33 3.26-4.89 8-4.11 12.54l20.61 119.85c0.5 2.76 0.14 5.38-0.78 7.65l-93.78-49.3c-4.11-2.12-9.07-2.12-13.17 0l-10.2 5.38-10.27-5.38c-4.11-2.12-9.07-2.12-13.17 0l-93.71 49.3c-0.99-2.27-1.35-4.89-0.85-7.65l20.61-119.85c0.78-4.53-0.78-9.28-4.11-12.54l-87.05-84.86c-8.43-8.15-3.75-22.45 7.86-24.15l120.28-17.5c4.68-0.64 8.64-3.54 10.7-7.72l49.73-100.65 49.65 100.65c2.05 4.18 6.02 7.08 10.7 7.72l120.28 17.5c11.62 1.7 16.29 16.01 7.86 24.15l-87.08 84.86z" fill="#000000" p-id="2424"></path></svg>